<?xml version="1.0" encoding="UTF-8"?>
<svg version="1.1" xmlns="http://www.w3.org/2000/svg" width="500" height="500">
<path d="M0 0 C4.31502292 1.52571443 8.68123664 2.88633815 13.04273987 4.2723999 C16.91867874 5.50641703 20.78907532 6.75644335 24.65777588 8.01290894 C26.00320233 8.44961151 27.34863082 8.88630782 28.69406128 9.32299805 C29.7065563 9.65168821 29.7065563 9.65168821 30.73950577 9.98701859 C37.0045973 12.01981924 43.27191235 14.04575986 49.53936768 16.07125854 C50.55567985 16.39979293 50.55567985 16.39979293 51.59252357 16.73496437 C61.8941184 20.06396285 72.21105329 23.33729557 82.55499268 26.53219604 C93.12734602 29.8016993 103.6332332 33.24128495 114.12139893 36.76864624 C134.83899136 43.7297075 155.680477 50.31047696 176.50610352 56.93948364 C179.76551643 57.977025 183.02477579 59.01504743 186.28399658 60.05319214 C198.76880056 64.02964556 211.25492522 68.00192976 223.74249268 71.96969604 C223.41249268 72.95969604 223.08249268 73.94969604 222.74249268 74.96969604 C220.2288208 76.17037964 220.2288208 76.17037964 216.77374268 77.36813354 C216.13290237 77.59465607 215.49206207 77.82117859 214.83180237 78.05456543 C213.4057208 78.55746874 211.97777109 79.05509594 210.54830933 79.54830933 C206.4518583 80.96314827 202.37011074 82.41965451 198.28546143 83.86813354 C197.38180344 84.1873175 196.47814545 84.50650146 195.54710388 84.83535767 C184.71475018 88.66885235 173.93879143 92.65463265 163.16061401 96.63735962 C159.51477558 97.98455692 155.8683454 99.33014071 152.22174072 100.67526245 C148.48704906 102.05291671 144.75237689 103.43062317 141.01795959 104.809021 C132.35451936 108.0067329 123.68961405 111.20045278 115.02374268 114.39157104 C113.82169189 114.83422806 112.61964111 115.27688507 111.38116455 115.73295593 C108.96938269 116.621089 106.55759885 117.50921667 104.14581299 118.39733887 C89.33154849 123.85284688 74.5181196 129.31056986 59.71124268 134.78610229 C58.67311935 135.16997101 57.63499603 135.55383972 56.56541443 135.94934082 C51.75338563 137.72889648 46.941652 139.50924358 42.13043213 141.29098511 C29.68470363 145.89740742 17.21844944 150.44580888 4.74249268 154.96969604 C4.41249268 159.58969604 4.08249268 164.20969604 3.74249268 168.96969604 C5.65143311 168.2555957 5.65143311 168.2555957 7.59893799 167.52706909 C32.05383225 158.38248925 56.52509937 149.28637445 81.05499268 140.34469604 C97.35997759 134.40110149 113.65490766 128.4322205 129.92999268 122.40719604 C148.27353881 115.61681184 166.62907144 108.85961862 184.99127197 102.11984253 C185.95781204 101.76496262 186.92435211 101.4100827 187.92018127 101.04444885 C189.80844379 100.35161633 191.69701705 99.65963007 193.58592224 98.96855164 C198.14738893 97.29824053 202.70173688 95.61198954 207.24493408 93.89254761 C208.11757401 93.56445099 208.99021393 93.23635437 209.88929749 92.89831543 C211.52733099 92.28166236 213.16345092 91.65989209 214.79722595 91.03204346 C218.35448504 89.69745151 220.89597745 88.96969604 224.74249268 88.96969604 C224.74249268 94.57969604 224.74249268 100.18969604 224.74249268 105.96969604 C219.02649657 108.94915851 213.30571286 111.37413337 207.24639893 113.55953979 C206.32632553 113.89585419 205.40625214 114.23216858 204.45829773 114.57867432 C202.4604467 115.30831921 200.46180511 116.03580237 198.46246338 116.76135254 C195.22678907 117.93557607 191.9931875 119.11535406 188.7600708 120.29660034 C185.31429355 121.55544233 181.86838031 122.81389961 178.42184448 124.07066345 C166.70182426 128.3445289 154.99596163 132.65650285 143.29168701 136.9732666 C138.50937995 138.73696335 133.72662791 140.49945174 128.94387817 142.26194763 C126.52403792 143.15368793 124.1042178 144.04548285 121.68441772 144.93733215 C113.1482312 148.08344277 104.61150099 151.228075 96.07452393 154.37203979 C91.23466035 156.15453806 86.39481765 157.93709298 81.55499268 159.71969604 C80.38031433 160.15234772 79.20563599 160.58499939 77.99536133 161.03076172 C65.34226917 165.69143144 52.69069075 170.35614481 40.04327393 175.03219604 C38.96018448 175.43263123 37.87709503 175.83306641 36.76118469 176.24563599 C31.66063394 178.13161753 26.56037305 180.01837845 21.46051025 181.90621948 C19.67169257 182.56800516 17.88287425 183.22978912 16.09405518 183.89157104 C15.28450882 184.19151978 14.47496246 184.49146851 13.6408844 184.80050659 C10.68525297 185.89366796 7.7323246 186.9730854 4.74249268 187.96969604 C4.41249268 192.25969604 4.08249268 196.54969604 3.74249268 200.96969604 C5.30217773 200.35529663 5.30217773 200.35529663 6.89337158 199.72848511 C19.23896116 194.88527718 31.66377423 190.27640833 44.11749268 185.71969604 C46.25857262 184.9347522 48.39960335 184.14967411 50.54058838 183.36447144 C67.09320295 177.29619619 83.65475595 171.25235293 100.21606445 165.20785522 C114.46809269 160.00552757 128.70960303 154.77590924 142.93753052 149.50802612 C150.49126669 146.71181319 158.04714814 143.92139947 165.60272217 141.13015747 C168.97941157 139.88213065 172.35557599 138.63268929 175.73175049 137.38327026 C181.76523482 135.15135017 187.80137991 132.92675015 193.83917236 130.70651245 C196.17759062 129.84538167 198.51516818 128.98196426 200.85186768 128.11618042 C204.09707799 126.91418144 207.34515957 125.72028517 210.59405518 124.52828979 C211.56468903 124.16670273 212.53532288 123.80511566 213.53536987 123.43257141 C214.42952606 123.10636307 215.32368225 122.78015472 216.24493408 122.44406128 C217.02108063 122.1578038 217.79722717 121.87154633 218.59689331 121.57661438 C220.74249268 120.96969604 220.74249268 120.96969604 224.74249268 120.96969604 C224.74249268 126.57969604 224.74249268 132.18969604 224.74249268 137.96969604 C218.40094436 141.31112975 211.94720272 143.87479468 205.21514893 146.32125854 C204.09477234 146.73268097 202.97439575 147.14410339 201.82006836 147.56799316 C198.78235614 148.68255076 195.74318143 149.79300034 192.70331192 150.9016571 C189.49527818 152.07284699 186.28926505 153.24954192 183.08306885 154.42575073 C177.8318218 156.35153098 172.57955633 158.27450553 167.32647705 160.19528198 C157.3989672 163.82549934 147.47712511 167.47112038 137.55545044 171.11724854 C134.53471861 172.22714527 131.51375506 173.33640923 128.49273682 174.44552612 C115.06976282 179.3742919 101.65389839 184.32204534 88.24249268 189.28219604 C71.31413058 195.54307416 54.38222261 201.79426822 37.44659424 208.03546143 C34.86301768 208.98757486 32.2795242 209.93991316 29.69610596 210.89245605 C26.09328398 212.22084359 22.49017318 213.54844646 18.88702393 214.87594604 C17.80181961 215.27613449 16.7166153 215.67632294 15.598526 216.08863831 C14.6042308 216.45479752 13.60993561 216.82095673 12.58551025 217.19821167 C11.71831863 217.51777832 10.85112701 217.83734497 9.95765686 218.16659546 C8.22843687 218.79351856 6.48745999 219.38804027 4.74249268 219.96969604 C4.41249268 224.25969604 4.08249268 228.54969604 3.74249268 232.96969604 C4.73152588 232.57894897 5.72055908 232.1882019 6.73956299 231.78561401 C20.58035659 226.34607405 34.53243018 221.21858581 48.49249268 216.09469604 C51.03105272 215.16175038 53.56940708 214.22824585 56.10772705 213.29464722 C57.39239487 212.8221584 58.67706284 212.34967 59.96173096 211.87718201 C60.59842712 211.64300631 61.23512329 211.4088306 61.89111328 211.16755867 C63.81921537 210.458493 65.74739712 209.74964434 67.67559814 209.04084778 C78.27677319 205.14354362 88.87178008 201.22969789 99.46469116 197.30999756 C118.00448799 190.45017293 136.55263946 183.61323751 155.11383057 176.81149292 C164.79969891 173.26114766 174.48125388 169.70020894 184.14961243 166.10240173 C188.72249488 164.40129209 193.29740145 162.70566499 197.87246704 161.01043701 C200.06768182 160.19524976 202.26188798 159.37734096 204.45504761 158.55664062 C207.48457878 157.42318567 210.51738526 156.2989638 213.55108643 155.17672729 C214.4569046 154.83502502 215.36272278 154.49332275 216.29598999 154.14126587 C217.12065765 153.83819519 217.94532532 153.53512451 218.79498291 153.22286987 C219.51322739 152.95517288 220.23147186 152.68747589 220.97148132 152.41166687 C222.74249268 151.96969604 222.74249268 151.96969604 224.74249268 152.96969604 C224.74249268 158.57969604 224.74249268 164.18969604 224.74249268 169.96969604 C219.02649657 172.94915851 213.30571286 175.37413337 207.24639893 177.55953979 C206.32632553 177.89585419 205.40625214 178.23216858 204.45829773 178.57867432 C202.4604467 179.30831921 200.46180511 180.03580237 198.46246338 180.76135254 C195.22678907 181.93557607 191.9931875 183.11535406 188.7600708 184.29660034 C185.31429355 185.55544233 181.86838031 186.81389961 178.42184448 188.07066345 C166.70182426 192.3445289 154.99596163 196.65650285 143.29168701 200.9732666 C138.50937995 202.73696335 133.72662791 204.49945174 128.94387817 206.26194763 C126.52403792 207.15368793 124.1042178 208.04548285 121.68441772 208.93733215 C113.1482312 212.08344277 104.61150223 215.22807837 96.07452393 218.37203979 C70.78729475 227.68510159 45.50110656 237.00093474 20.2290802 246.35519409 C18.53667478 246.98046649 16.84352666 247.60373295 15.14958191 248.224823 C10.90960456 249.78182849 6.68944602 251.37573522 2.48760986 253.03317261 C1.63178314 253.36467316 0.77595642 253.69617371 -0.10580444 254.03771973 C-1.72143134 254.66443571 -3.33239143 255.30338332 -4.93728638 255.95709229 C-13.31675734 259.17547051 -19.80556186 256.63414022 -27.88641357 253.64547729 C-28.81573196 253.30788391 -29.74505035 252.97029053 -30.70252991 252.62246704 C-33.74413226 251.51561664 -36.78206061 250.39903674 -39.82000732 249.28219604 C-41.95473985 248.50293209 -44.0896707 247.72421122 -46.22479248 246.9460144 C-52.57245407 244.62986655 -58.91534894 242.30086212 -65.25750732 239.96969604 C-66.96922733 239.34135559 -68.68097645 238.71309441 -70.39276123 238.08493042 C-78.85176178 234.979616 -87.30586991 231.86117043 -95.75820923 228.73777771 C-105.1532079 225.26732419 -114.55496809 221.81528594 -123.95663452 218.36294556 C-127.07676137 217.21721592 -130.19680704 216.07126544 -133.3168335 214.92526245 C-142.73457119 211.46620638 -152.15263977 208.00805316 -161.57116699 204.55114746 C-173.76060619 200.07715225 -185.9487647 195.59968697 -198.13531494 191.11782837 C-200.25968827 190.33662677 -202.38412088 189.55558636 -204.50860596 188.77468872 C-211.00337618 186.38740302 -217.49725659 183.99772558 -223.98983765 181.60449219 C-226.02712055 180.8539164 -228.06469348 180.10412729 -230.10256958 179.35516357 C-232.9115369 178.32260975 -235.71941811 177.28715548 -238.52703857 176.25094604 C-239.35688263 175.94661148 -240.18672668 175.64227692 -241.04171753 175.32872009 C-241.80620209 175.04588669 -242.57068665 174.76305328 -243.3583374 174.47164917 C-244.01884598 174.22837891 -244.67935455 173.98510864 -245.35987854 173.73446655 C-247.37366372 172.92288342 -249.31554998 171.94067472 -251.25750732 170.96969604 C-251.25750732 142.25969604 -251.25750732 113.54969604 -251.25750732 83.96969604 C-245.20603603 81.28015325 -239.24011069 78.76077232 -233.03875732 76.49313354 C-231.72784119 76.00965202 -231.72784119 76.00965202 -230.39044189 75.5164032 C-227.51384166 74.45630535 -224.63568744 73.40049614 -221.75750732 72.34469604 C-219.7040268 71.58885086 -217.65064336 70.83274188 -215.59735107 70.0763855 C-209.15223736 67.70339655 -202.70499996 65.3362122 -196.25750732 62.96969604 C-194.23145249 62.22575404 -192.20541055 61.48177692 -190.17938232 60.73776245 C-174.47784386 54.97198741 -174.47784386 54.97198741 -169.21429443 53.04043579 C-152.88391189 47.04762592 -136.56762669 41.01741921 -120.25750732 34.96969604 C-106.84569273 29.99684636 -93.43233988 25.02840851 -80.00750732 20.09078979 C-78.93758545 19.69699631 -77.86766357 19.30320282 -76.76531982 18.8974762 C-71.55163454 16.97997534 -66.33531682 15.07029271 -61.11297607 13.17648315 C-52.38637024 10.00586447 -43.70614084 6.79328858 -35.13250732 3.22750854 C-33.1217084 2.41237738 -31.10940556 1.60110491 -29.09637451 0.79150391 C-27.35568783 0.07273689 -25.63761464 -0.70009882 -23.92156982 -1.4758606 C-14.95727066 -5.07195561 -8.64182986 -3.12807237 0 0 Z " fill="#39B6FE" transform="translate(263.25750732421875,123.03030395507813)"/>
<path d="M0 0 C0.99 0.33 1.98 0.66 3 1 C3 29.05 3 57.1 3 86 C5.97 86.66 8.94 87.32 12 88 C13.32 88.66 14.64 89.32 16 90 C16 90.66 16 91.32 16 92 C17.65 92 19.3 92 21 92 C20.67 92.66 20.34 93.32 20 94 C18.35167306 93.59330999 16.70646988 93.17395931 15.0625 92.75 C14.14597656 92.51796875 13.22945312 92.2859375 12.28515625 92.046875 C8.06701493 90.70268728 4.04557045 88.79803131 0 87 C0 58.29 0 29.58 0 0 Z " fill="#81CCEF" transform="translate(12,207)"/>
<path d="M0 0 C0 0.99 0 1.98 0 3 C-0.99 3.33 -1.98 3.66 -3 4 C-2.34 4.66 -1.68 5.32 -1 6 C-4.09478879 7.03159626 -5.52631393 6.97482862 -8.6875 6.5625 C-9.49574219 6.46066406 -10.30398437 6.35882813 -11.13671875 6.25390625 C-11.75160156 6.17011719 -12.36648437 6.08632812 -13 6 C-13 6.66 -13 7.32 -13 8 C-17.92207888 10.63363182 -22.57559844 12.56713921 -28 14 C-29.672233 14.65257873 -31.33927151 15.31867549 -33 16 C-35 16.66666667 -37 17.33333333 -39 18 C-39.78375 18.37125 -40.5675 18.7425 -41.375 19.125 C-45.02343543 20.34114514 -48.1628306 20.13007354 -52 20 C-49.39970939 18.26647293 -47.37579765 17.29088311 -44.484375 16.22827148 C-43.57333008 15.89129745 -42.66228516 15.55432343 -41.72363281 15.20713806 C-40.74233398 14.84874344 -39.76103516 14.49034882 -38.75 14.12109375 C-37.7403418 13.74896255 -36.73068359 13.37683136 -35.69042969 12.99342346 C-32.46162514 11.80443927 -29.23082959 10.62096901 -26 9.4375 C-23.82278819 8.63641679 -21.64570327 7.83498864 -19.46875 7.03320312 C-15.48512467 5.56753147 -11.50119426 4.10271222 -7.515625 2.64233398 C-6.71415039 2.34858383 -5.91267578 2.05483368 -5.08691406 1.75218201 C-3.39974848 1.1440805 -1.70137699 0.56712566 0 0 Z " fill="#6BC3F4" transform="translate(249,119)"/>
<path d="M0 0 C-2.23645137 3.35467705 -2.87579977 3.54798645 -6.5625 4.625 C-9.54515084 5.35352498 -9.54515084 5.35352498 -12 7 C-12.12507482 9.61600453 -12.18605405 12.20691934 -12.20532227 14.82446289 C-12.21522186 15.64390884 -12.22512146 16.4633548 -12.23532104 17.30763245 C-12.26703055 20.02927717 -12.29173062 22.75093939 -12.31640625 25.47265625 C-12.33696763 27.35453253 -12.35796388 29.23640411 -12.37937927 31.11827087 C-12.43468426 36.08143311 -12.48405623 41.0446376 -12.53222656 46.00787354 C-12.58238022 51.06843851 -12.63809824 56.1289418 -12.69335938 61.18945312 C-12.80104395 71.12624945 -12.90246589 81.06309923 -13 91 C-13.33 91 -13.66 91 -14 91 C-13.99777939 89.93955475 -13.99555878 88.8791095 -13.99327087 87.78652954 C-13.97302942 77.80960791 -13.958023 67.83269042 -13.94818783 57.85575294 C-13.94296156 52.72609224 -13.93586854 47.59644806 -13.92456055 42.46679688 C-13.9137226 37.51960461 -13.90772123 32.57242828 -13.90512276 27.62522507 C-13.90327015 25.73451868 -13.89965267 23.84381319 -13.89426994 21.95311356 C-13.8870475 19.31198467 -13.88600957 16.67092227 -13.88647461 14.02978516 C-13.88287933 13.24216293 -13.87928406 12.45454071 -13.87557983 11.64305115 C-13.79894774 7.69258461 -13.79894774 7.69258461 -15 4 C-12.87875034 3.13656176 -10.75286928 2.28449352 -8.625 1.4375 C-6.84996094 0.72400391 -6.84996094 0.72400391 -5.0390625 -0.00390625 C-2 -1 -2 -1 0 0 Z " fill="#41B4F5" transform="translate(28,202)"/>
<path d="M0 0 C-1 2 -1 2 -3.3125 3.125 C-6 4 -6 4 -10 4 C-10 4.66 -10 5.32 -10 6 C-10.56847656 6.10957031 -11.13695312 6.21914063 -11.72265625 6.33203125 C-17.75371447 7.57046224 -23.13844031 9.07292596 -28.30859375 12.5546875 C-31.4520341 14.2427469 -33.76709466 14.49269751 -37.3125 14.6875 C-38.38113281 14.75324219 -39.44976562 14.81898438 -40.55078125 14.88671875 C-41.76314453 14.94279297 -41.76314453 14.94279297 -43 15 C-40.5995775 13.39971833 -38.83960471 12.45629298 -36.20288086 11.47192383 C-35.44877426 11.18855667 -34.69466766 10.90518951 -33.91770935 10.61323547 C-33.1082637 10.31418808 -32.29881805 10.01514069 -31.46484375 9.70703125 C-30.63038223 9.39674484 -29.79592072 9.08645844 -28.93617249 8.76676941 C-27.17427961 8.11335621 -25.41159873 7.46206443 -23.64819336 6.81274414 C-20.94129767 5.81390134 -18.23919313 4.80279178 -15.53710938 3.79101562 C-13.82580011 3.15809853 -12.11422052 2.52591178 -10.40234375 1.89453125 C-9.59087387 1.58941116 -8.77940399 1.28429108 -7.94334412 0.96992493 C-2.22886404 -1.11443202 -2.22886404 -1.11443202 0 0 Z " fill="#74C4F1" transform="translate(393,311)"/>
<path d="M0 0 C0.66 0.33 1.32 0.66 2 1 C2 6.61 2 12.22 2 18 C-3.28646037 20.86349937 -8.69793199 23.12498942 -14.3125 25.25 C-15.01826172 25.52021973 -15.72402344 25.79043945 -16.45117188 26.06884766 C-19.43567674 27.18124101 -21.78851124 28 -25 28 C-25 27.34 -25 26.68 -25 26 C-24.01 26 -23.02 26 -22 26 C-22 25.34 -22 24.68 -22 24 C-20.35 24 -18.7 24 -17 24 C-17 23.34 -17 22.68 -17 22 C-15.10454608 21.51933465 -13.20861961 21.04053257 -11.3125 20.5625 C-10.25675781 20.29566406 -9.20101563 20.02882813 -8.11328125 19.75390625 C-5.42410737 19.10270103 -2.71316669 18.54263334 0 18 C0 13.05 0 8.1 0 3 C-1.98 3 -3.96 3 -6 3 C-3 1 -3 1 0 0 Z " fill="#74C3EF" transform="translate(486,275)"/>
<path d="M0 0 C8.05856516 1.59592912 15.76345169 4.07125036 23.5625 6.625 C24.87031942 7.04985888 26.17826132 7.47434091 27.48632812 7.8984375 C30.65877263 8.92860398 33.82993255 9.96254657 37 11 C37 11.33 37 11.66 37 12 C32.71 11.67 28.42 11.34 24 11 C24 10.34 24 9.68 24 9 C20.37 8.34 16.74 7.68 13 7 C13 6.34 13 5.68 13 5 C10.36 5 7.72 5 5 5 C5 4.34 5 3.68 5 3 C3.35 2.67 1.7 2.34 0 2 C0 1.34 0 0.68 0 0 Z M23 11 C23.66 11.33 24.32 11.66 25 12 C25 12.66 25 13.32 25 14 C23.68 13.67 22.36 13.34 21 13 C21.66 12.34 22.32 11.68 23 11 Z " fill="#68C0F2" transform="translate(307,138)"/>
<path d="M0 0 C-2.76263954 1.84175969 -5.00758626 2.83508872 -8.10546875 3.9453125 C-9.57983398 4.47705078 -9.57983398 4.47705078 -11.08398438 5.01953125 C-12.10814453 5.38433594 -13.13230469 5.74914062 -14.1875 6.125 C-15.22326172 6.49753906 -16.25902344 6.87007813 -17.32617188 7.25390625 C-19.88281831 8.17288515 -22.44124222 9.08691631 -25 10 C-25.33 14.29 -25.66 18.58 -26 23 C-23.03 22.01 -20.06 21.02 -17 20 C-17.66 21.32 -18.32 22.64 -19 24 C-21.64 24 -24.28 24 -27 24 C-27.05397335 21.5622037 -27.09365616 19.12560315 -27.125 16.6875 C-27.14175781 15.99720703 -27.15851563 15.30691406 -27.17578125 14.59570312 C-27.21217794 10.82864604 -27.14378864 9.21568296 -25 6 C-21.375 5.8125 -21.375 5.8125 -18 6 C-18 5.34 -18 4.68 -18 4 C-13.545 3.505 -13.545 3.505 -9 3 C-9 2.34 -9 1.68 -9 1 C-5.8035914 -0.06546953 -3.34252724 -0.07427838 0 0 Z " fill="#7BC8F2" transform="translate(293,301)"/>
<path d="M0 0 C-1.86502588 2.62799102 -3.30410791 3.86365751 -6.4921875 4.48828125 C-8.9964272 4.72593573 -11.48653979 4.9040664 -14 5 C-14 5.66 -14 6.32 -14 7 C-15.07121094 7.34933594 -16.14242188 7.69867188 -17.24609375 8.05859375 C-18.64328104 8.51807145 -20.04041365 8.97771546 -21.4375 9.4375 C-22.14455078 9.66759766 -22.85160156 9.89769531 -23.58007812 10.13476562 C-27.06306795 11.07421147 -27.06306795 11.07421147 -30 13 C-32.67058851 13.14115161 -35.32432238 13.04247107 -38 13 C-34.67373445 10.78248963 -31.28458798 9.50330471 -27.55859375 8.14453125 C-26.83511246 7.87863693 -26.11163116 7.61274261 -25.3662262 7.33879089 C-23.83972752 6.77950329 -22.31243932 6.2223665 -20.78442383 5.66723633 C-18.43967823 4.8132933 -16.09972717 3.94703081 -13.75976562 3.08007812 C-12.27631859 2.53830365 -10.79260347 1.99726254 -9.30859375 1.45703125 C-8.60649277 1.19565872 -7.90439178 0.93428619 -7.18101501 0.66499329 C-2.22889136 -1.11444568 -2.22889136 -1.11444568 0 0 Z " fill="#73C4F1" transform="translate(478,216)"/>
<path d="M0 0 C8.54076441 1.67765015 16.72564036 4.34002181 25 7 C24.67 7.99 24.34 8.98 24 10 C21.71137774 11.10434166 19.57293475 11.98538946 17.1875 12.8125 C16.55779297 13.05419922 15.92808594 13.29589844 15.27929688 13.54492188 C12.3250278 14.59581087 10.56348013 15.19861102 7.55078125 14.13671875 C7.03902344 13.76160156 6.52726562 13.38648438 6 13 C8.64 12.34 11.28 11.68 14 11 C14 10.34 14 9.68 14 9 C15.98 9 17.96 9 20 9 C20 8.34 20 7.68 20 7 C18.4840625 6.814375 18.4840625 6.814375 16.9375 6.625 C13.15594776 6.02475361 9.6609912 5.10520489 6 4 C4.66869885 3.65864073 3.33641852 3.32074044 2 3 C2 2.34 2 1.68 2 1 C1.34 0.67 0.68 0.34 0 0 Z " fill="#76C4EF" transform="translate(462,188)"/>
<path d="M0 0 C0 5.61 0 11.22 0 17 C-8.42857143 21.42857143 -8.42857143 21.42857143 -13 22 C-12.505 20.515 -12.505 20.515 -12 19 C-9.39137376 17.96868265 -6.75952365 17.56942551 -4 17 C-3.67 12.05 -3.34 7.1 -3 2 C-5.31 2.33 -7.62 2.66 -10 3 C-6.26223701 0.50815801 -4.5227786 0 0 0 Z " fill="#7DC9EF" transform="translate(488,244)"/>
<path d="M0 0 C0 5.61 0 11.22 0 17 C-8.42857143 21.42857143 -8.42857143 21.42857143 -13 22 C-12.505 20.515 -12.505 20.515 -12 19 C-9.39137376 17.96868265 -6.75952365 17.56942551 -4 17 C-3.67 12.05 -3.34 7.1 -3 2 C-5.31 2.33 -7.62 2.66 -10 3 C-6.26223701 0.50815801 -4.5227786 0 0 0 Z " fill="#7FCBEE" transform="translate(488,212)"/>
<path d="M0 0 C-2.76263954 1.84175969 -5.00758626 2.83508872 -8.10546875 3.9453125 C-9.57983398 4.47705078 -9.57983398 4.47705078 -11.08398438 5.01953125 C-12.10814453 5.38433594 -13.13230469 5.74914062 -14.1875 6.125 C-15.22326172 6.49753906 -16.25902344 6.87007813 -17.32617188 7.25390625 C-19.88281831 8.17288515 -22.44124222 9.08691631 -25 10 C-25 14.62 -25 19.24 -25 24 C-25.66 24 -26.32 24 -27 24 C-27.05397335 21.5622037 -27.09365616 19.12560315 -27.125 16.6875 C-27.14175781 15.99720703 -27.15851563 15.30691406 -27.17578125 14.59570312 C-27.21217794 10.82864604 -27.14378864 9.21568296 -25 6 C-21.375 5.8125 -21.375 5.8125 -18 6 C-18 5.34 -18 4.68 -18 4 C-6.66287016 -0.59225513 -6.66287016 -0.59225513 0 0 Z " fill="#77C6F1" transform="translate(293,333)"/>
<path d="M0 0 C-4.85295325 3.23530217 -10.42745426 4.90246428 -15.87890625 6.90551758 C-17.99585692 7.68597257 -20.10723122 8.48037628 -22.21875 9.27539062 C-23.56218033 9.77169948 -24.90592037 10.26717099 -26.25 10.76171875 C-27.47203125 11.21506592 -28.6940625 11.66841309 -29.953125 12.13549805 C-33 13 -33 13 -36 12 C-33.03312999 10.35173889 -30.34373475 9.55728913 -27 9 C-27 8.34 -27 7.68 -27 7 C-22.8803623 5.70756464 -19.33168317 4.73747375 -15 5 C-15 4.34 -15 3.68 -15 3 C-13.44033782 2.491217 -11.87710759 1.99336531 -10.3125 1.5 C-9.44238281 1.2215625 -8.57226562 0.943125 -7.67578125 0.65625 C-5.00608323 0.00149195 -2.73603316 -0.11831495 0 0 Z " fill="#75C4F1" transform="translate(453,306)"/>
<path d="M0 0 C-2.38640143 3.57960215 -3.20641855 3.57196491 -7.25 4.5 C-10.52728952 5.30763296 -13.06521551 6.03460415 -16.0625 7.625 C-20.25533138 9.58760192 -24.41959602 9.73748673 -29 10 C-25.21885871 6.21885871 -19.46289583 5.08652961 -14.5 3.3125 C-13.33339844 2.88388672 -12.16679687 2.45527344 -10.96484375 2.01367188 C-9.85238281 1.61341797 -8.73992187 1.21316406 -7.59375 0.80078125 C-6.56958984 0.43122314 -5.54542969 0.06166504 -4.49023438 -0.3190918 C-2 -1 -2 -1 0 0 Z " fill="#77C7F3" transform="translate(407,274)"/>
<path d="M0 0 C-4.75820647 3.17213764 -10.14188275 4.75079505 -15.5 6.6875 C-17.23056641 7.33041992 -17.23056641 7.33041992 -18.99609375 7.98632812 C-20.10082031 8.38658203 -21.20554687 8.78683594 -22.34375 9.19921875 C-23.86258789 9.75355591 -23.86258789 9.75355591 -25.41210938 10.3190918 C-28 11 -28 11 -31 10 C-27.81237635 7.87491756 -25.73487777 7.4979837 -22 7 C-22 6.34 -22 5.68 -22 5 C-20.02 5 -18.04 5 -16 5 C-16 4.34 -16 3.68 -16 3 C-14.02 3 -12.04 3 -10 3 C-10 2.34 -10 1.68 -10 1 C-6.59437148 0.22157062 -3.49234244 -0.09978121 0 0 Z " fill="#6EC1F1" transform="translate(361,276)"/>
<path d="M0 0 C-4.63141409 3.08760939 -9.80862322 4.73014523 -15 6.6875 C-16.10601562 7.11611328 -17.21203125 7.54472656 -18.3515625 7.98632812 C-19.41117187 8.38658203 -20.47078125 8.78683594 -21.5625 9.19921875 C-23.01849609 9.75355591 -23.01849609 9.75355591 -24.50390625 10.3190918 C-27 11 -27 11 -30 10 C-27.42853943 7.42853943 -25.3949583 7.19882003 -21.875 6.375 C-20.77929688 6.11460937 -19.68359375 5.85421875 -18.5546875 5.5859375 C-17.29011719 5.29589844 -17.29011719 5.29589844 -16 5 C-16 4.34 -16 3.68 -16 3 C-14.02 3 -12.04 3 -10 3 C-10 2.34 -10 1.68 -10 1 C-6.61981469 -0.04005702 -3.5219721 -0.08004482 0 0 Z " fill="#77C5F0" transform="translate(328,320)"/>
<path d="M0 0 C-4.62545952 3.08363968 -9.80868483 4.68884516 -15 6.625 C-16.65902344 7.25535156 -16.65902344 7.25535156 -18.3515625 7.8984375 C-19.41117187 8.29546875 -20.47078125 8.6925 -21.5625 9.1015625 C-22.53316406 9.46588379 -23.50382812 9.83020508 -24.50390625 10.20556641 C-27 11 -27 11 -30 11 C-30 10.34 -30 9.68 -30 9 C-29.01 9 -28.02 9 -27 9 C-27 8.34 -27 7.68 -27 7 C-25.02 7 -23.04 7 -21 7 C-21 6.34 -21 5.68 -21 5 C-18.69 5 -16.38 5 -14 5 C-14 4.34 -14 3.68 -14 3 C-4.58997722 -0.44419134 -4.58997722 -0.44419134 0 0 Z " fill="#70C2F2" transform="translate(366,306)"/>
<path d="M0 0 C0 0.66 0 1.32 0 2 C-1.15628906 2.50660156 -1.15628906 2.50660156 -2.3359375 3.0234375 C-3.33882812 3.46945313 -4.34171875 3.91546875 -5.375 4.375 C-6.87160156 5.03628906 -6.87160156 5.03628906 -8.3984375 5.7109375 C-11.08022479 6.86712444 -11.08022479 6.86712444 -13 9 C-15.8203125 9.1953125 -15.8203125 9.1953125 -19.125 9.125 C-20.22070312 9.10695312 -21.31640625 9.08890625 -22.4453125 9.0703125 C-23.28835937 9.04710937 -24.13140625 9.02390625 -25 9 C-21.06542833 6.37695222 -16.9244328 4.99225181 -12.5 3.375 C-11.19869141 2.88773438 -11.19869141 2.88773438 -9.87109375 2.390625 C-9.03707031 2.08382812 -8.20304687 1.77703125 -7.34375 1.4609375 C-6.58255859 1.18040527 -5.82136719 0.89987305 -5.03710938 0.61083984 C-3 0 -3 0 0 0 Z " fill="#74C6F4" transform="translate(189,142)"/>
<path d="M0 0 C1.21816406 0.03480469 1.21816406 0.03480469 2.4609375 0.0703125 C3.68683594 0.09738281 3.68683594 0.09738281 4.9375 0.125 C5.87722656 0.15980469 5.87722656 0.15980469 6.8359375 0.1953125 C3.8359375 2.1953125 3.8359375 2.1953125 -2.1640625 4.1953125 C-2.4940625 8.8153125 -2.8240625 13.4353125 -3.1640625 18.1953125 C-0.8540625 17.5353125 1.4559375 16.8753125 3.8359375 16.1953125 C2.54628574 17.57094104 1.20904457 18.90297643 -0.1640625 20.1953125 C-0.8240625 20.1953125 -1.4840625 20.1953125 -2.1640625 20.1953125 C-2.1640625 20.8553125 -2.1640625 21.5153125 -2.1640625 22.1953125 C-2.8240625 22.1953125 -3.4840625 22.1953125 -4.1640625 22.1953125 C-4.22196603 18.90371934 -4.25762511 15.61225647 -4.2890625 12.3203125 C-4.30582031 11.38316406 -4.32257813 10.44601562 -4.33984375 9.48046875 C-4.34951172 8.13662109 -4.34951172 8.13662109 -4.359375 6.765625 C-4.36984863 5.93820801 -4.38032227 5.11079102 -4.39111328 4.25830078 C-4.05765736 1.22851312 -3.01843494 0.27242193 0 0 Z " fill="#95D7F4" transform="translate(270.1640625,273.8046875)"/>
<path d="M0 0 C1.32 0.33 2.64 0.66 4 1 C1.73240565 3.26759435 0.09441567 3.85464688 -2.90234375 4.9453125 C-3.87494141 5.29980469 -4.84753906 5.65429688 -5.84960938 6.01953125 C-6.86861328 6.38433594 -7.88761719 6.74914062 -8.9375 7.125 C-9.95263672 7.49753906 -10.96777344 7.87007813 -12.01367188 8.25390625 C-19.61320971 11 -19.61320971 11 -23 11 C-23 10.34 -23 9.68 -23 9 C-21.02 8.67 -19.04 8.34 -17 8 C-17 7.34 -17 6.68 -17 6 C-15.02 6 -13.04 6 -11 6 C-11 5.34 -11 4.68 -11 4 C-5.555 3.01 -5.555 3.01 0 2 C0 1.34 0 0.68 0 0 Z " fill="#73C4F0" transform="translate(329,349)"/>
<path d="M0 0 C-3.43438215 1.34146494 -6.87298417 2.67175905 -10.3125 4 C-11.28896484 4.3815625 -12.26542969 4.763125 -13.27148438 5.15625 C-14.20927734 5.5171875 -15.14707031 5.878125 -16.11328125 6.25 C-16.97735596 6.58515625 -17.84143066 6.9203125 -18.73168945 7.265625 C-21 8 -21 8 -24 8 C-24 7.34 -24 6.68 -24 6 C-23.43410156 5.72285156 -22.86820312 5.44570312 -22.28515625 5.16015625 C-21.55167969 4.79792969 -20.81820313 4.43570313 -20.0625 4.0625 C-19.33160156 3.70285156 -18.60070312 3.34320313 -17.84765625 2.97265625 C-16.03750973 2.13628173 -16.03750973 2.13628173 -15 1 C-13.24040745 0.57537105 -11.46641367 0.20957714 -9.6875 -0.125 C-8.23923828 -0.40730469 -8.23923828 -0.40730469 -6.76171875 -0.6953125 C-4.0850959 -0.99061177 -2.54098809 -0.72172888 0 0 Z " fill="#6FC3F2" transform="translate(428,219)"/>
<path d="M0 0 C-1.32 0.33 -2.64 0.66 -4 1 C-4 1.99 -4 2.98 -4 4 C-5.32 4.33 -6.64 4.66 -8 5 C-7.67 5.99 -7.34 6.98 -7 8 C-7.825 7.649375 -8.65 7.29875 -9.5 6.9375 C-13.83386892 5.77664225 -16.60909969 6.24294822 -21 7 C-18.02380583 4.02380583 -14.42456111 3.18190761 -10.5 1.8125 C-9.71496094 1.52697266 -8.92992187 1.24144531 -8.12109375 0.94726562 C-6.99380859 0.54991211 -6.99380859 0.54991211 -5.84375 0.14453125 C-5.15474609 -0.09934326 -4.46574219 -0.34321777 -3.75585938 -0.59448242 C-2 -1 -2 -1 0 0 Z " fill="#6BC4F3" transform="translate(372,255)"/>
<path d="M0 0 C2.64 0 5.28 0 8 0 C5.26157195 1.8256187 3.02982466 2.83122636 -0.03515625 3.9453125 C-1.00904297 4.29980469 -1.98292969 4.65429688 -2.98632812 5.01953125 C-4.00146484 5.38433594 -5.01660156 5.74914062 -6.0625 6.125 C-7.08150391 6.49753906 -8.10050781 6.87007812 -9.15039062 7.25390625 C-16.73986951 10 -16.73986951 10 -19 10 C-19 9.34 -19 8.68 -19 8 C-18.01 8 -17.02 8 -16 8 C-16 7.34 -16 6.68 -16 6 C-14.02 6 -12.04 6 -10 6 C-10 5.34 -10 4.68 -10 4 C-6.38026598 2.68373308 -3.90432869 2 0 2 C0 1.34 0 0.68 0 0 Z " fill="#76C7F0" transform="translate(364,239)"/>
<path d="M0 0 C0 0.66 0 1.32 0 2 C-1.65 2.33 -3.3 2.66 -5 3 C-5 3.66 -5 4.32 -5 5 C-10.89738492 7.29342747 -15.66606918 8.34548714 -22 8 C-18.51849756 5.67899838 -14.89433316 4.32324845 -11 2.875 C-10.27554687 2.59785156 -9.55109375 2.32070313 -8.8046875 2.03515625 C-5.74462128 0.88904289 -3.29457901 0 0 0 Z " fill="#6FC4F2" transform="translate(350,326)"/>
<path d="M0 0 C-6.98068414 5.1286659 -14.51976081 7.49544143 -23 9 C-25.21191406 8.53759766 -25.21191406 8.53759766 -27 8 C-22.87945153 6.46690705 -18.75291994 4.95062098 -14.625 3.4375 C-12.8615625 2.78104492 -12.8615625 2.78104492 -11.0625 2.11132812 C-9.94101562 1.70205078 -8.81953125 1.29277344 -7.6640625 0.87109375 C-6.10872803 0.29766235 -6.10872803 0.29766235 -4.52197266 -0.28735352 C-2 -1 -2 -1 0 0 Z " fill="#79C9F0" transform="translate(450,290)"/>
<path d="M0 0 C-2.45797101 4.79304348 -2.45797101 4.79304348 -4.71875 5.65625 C-7.58840588 6.0886639 -10.34878246 6.09403497 -13.25 6.0625 C-14.32765625 6.05347656 -15.4053125 6.04445312 -16.515625 6.03515625 C-17.33546875 6.02355469 -18.1553125 6.01195312 -19 6 C-15.78117751 3.85411834 -12.54876914 2.60197657 -8.9375 1.3125 C-8.30005859 1.07466797 -7.66261719 0.83683594 -7.00585938 0.59179688 C-2.24081277 -1.12040638 -2.24081277 -1.12040638 0 0 Z " fill="#61C1F6" transform="translate(391,248)"/>
<path d="M0 0 C2.64 0 5.28 0 8 0 C8 0.66 8 1.32 8 2 C9.98 2 11.96 2 14 2 C14 2.66 14 3.32 14 4 C15.32 4 16.64 4 18 4 C18 4.66 18 5.32 18 6 C19.32 6.33 20.64 6.66 22 7 C18.52901466 8.15699511 17.85266875 7.82954442 14.55078125 6.56640625 C13.70322266 6.24736328 12.85566406 5.92832031 11.98242188 5.59960938 C10.66081055 5.08624023 10.66081055 5.08624023 9.3125 4.5625 C8.41982422 4.22412109 7.52714844 3.88574219 6.60742188 3.53710938 C4.40165826 2.69962693 2.19953824 1.85367026 0 1 C0 0.67 0 0.34 0 0 Z " fill="#74C6F2" transform="translate(114,331)"/>
<path d="M0 0 C-1.32 0.33 -2.64 0.66 -4 1 C-4 1.66 -4 2.32 -4 3 C-9.81776885 7.15554918 -15.11451024 7.11670322 -22 7 C-18.31819464 4.54546309 -14.58981383 3.27700903 -10.4375 1.8125 C-9.65697266 1.52697266 -8.87644531 1.24144531 -8.07226562 0.94726562 C-2.24111087 -1.12055543 -2.24111087 -1.12055543 0 0 Z " fill="#72C4F3" transform="translate(320,306)"/>
<path d="M0 0 C6.47882736 1.77850163 6.47882736 1.77850163 9.5 3.0625 C12.63060038 4.23647514 15.68947735 4.61052675 19 5 C19 6.32 19 7.64 19 9 C11.8821847 6.96192707 4.93292719 4.59655258 -2 2 C-1.34 1.34 -0.68 0.68 0 0 Z " fill="#7ECAF3" transform="translate(45,304)"/>
<path d="M0 0 C-3 2 -3 2 -6 2 C-6 2.66 -6 3.32 -6 4 C-12.25172386 6.86964374 -17.09647445 8.51137226 -24 8 C-20.04674034 5.36449356 -15.87870021 3.95045928 -11.4375 2.3125 C-10.56158203 1.97927734 -9.68566406 1.64605469 -8.78320312 1.30273438 C-7.94595703 0.99271484 -7.10871094 0.68269531 -6.24609375 0.36328125 C-5.47966553 0.07751221 -4.7132373 -0.20825684 -3.92358398 -0.50268555 C-2 -1 -2 -1 0 0 Z " fill="#7ECAF3" transform="translate(474,281)"/>
<path d="M0 0 C-0.33 0.66 -0.66 1.32 -1 2 C-1.99 2 -2.98 2 -4 2 C-4 2.66 -4 3.32 -4 4 C-6.64 4 -9.28 4 -12 4 C-12 4.66 -12 5.32 -12 6 C-14.75 7.125 -14.75 7.125 -18 8 C-20.203125 7.0546875 -20.203125 7.0546875 -22 6 C-18.71265867 4.80027611 -15.41952901 3.61732792 -12.125 2.4375 C-11.18785156 2.09525391 -10.25070312 1.75300781 -9.28515625 1.40039062 C-8.38925781 1.08134766 -7.49335938 0.76230469 -6.5703125 0.43359375 C-5.74289551 0.13509521 -4.91547852 -0.16340332 -4.06298828 -0.47094727 C-2 -1 -2 -1 0 0 Z " fill="#83CDF4" transform="translate(328,335)"/>
<path d="M0 0 C-2.12961921 2.12961921 -3.45994756 2.69856154 -6.24609375 3.7265625 C-7.08333984 4.0359375 -7.92058594 4.3453125 -8.78320312 4.6640625 C-10.09708008 5.13972656 -10.09708008 5.13972656 -11.4375 5.625 C-12.30955078 5.94984375 -13.18160156 6.2746875 -14.08007812 6.609375 C-20.6141183 9 -20.6141183 9 -24 9 C-24 8.34 -24 7.68 -24 7 C-22.25307205 6.32532438 -20.50231475 5.66055844 -18.75 5 C-17.28820312 4.443125 -17.28820312 4.443125 -15.796875 3.875 C-13 3 -13 3 -9 3 C-9 2.34 -9 1.68 -9 1 C-5.92677456 0.08941469 -3.19902639 -0.08886184 0 0 Z " fill="#77C4EF" transform="translate(409,290)"/>
<path d="M0 0 C-2.12961921 2.12961921 -3.45994756 2.69856154 -6.24609375 3.7265625 C-7.08333984 4.0359375 -7.92058594 4.3453125 -8.78320312 4.6640625 C-10.09708008 5.13972656 -10.09708008 5.13972656 -11.4375 5.625 C-12.30955078 5.94984375 -13.18160156 6.2746875 -14.08007812 6.609375 C-20.6141183 9 -20.6141183 9 -24 9 C-24 8.34 -24 7.68 -24 7 C-22.25307205 6.32532438 -20.50231475 5.66055844 -18.75 5 C-17.28820312 4.443125 -17.28820312 4.443125 -15.796875 3.875 C-13 3 -13 3 -9 3 C-9 2.34 -9 1.68 -9 1 C-5.92677456 0.08941469 -3.19902639 -0.08886184 0 0 Z " fill="#76C5EE" transform="translate(409,258)"/>
<path d="M0 0 C2.31 0 4.62 0 7 0 C3.04674034 2.63550644 -1.12129979 4.04954072 -5.5625 5.6875 C-6.87637695 6.18733398 -6.87637695 6.18733398 -8.21679688 6.69726562 C-9.05404297 7.00728516 -9.89128906 7.31730469 -10.75390625 7.63671875 C-11.90354858 8.06537231 -11.90354858 8.06537231 -13.07641602 8.50268555 C-15 9 -15 9 -17 8 C-16 6 -16 6 -13.96875 5.18359375 C-13.1540625 4.93738281 -12.339375 4.69117188 -11.5 4.4375 C-8.48668507 3.67451663 -8.48668507 3.67451663 -6 2 C-4.00041636 1.95919217 -1.99954746 1.95745644 0 2 C0 1.34 0 0.68 0 0 Z " fill="#78C6F1" transform="translate(332,251)"/>
<path d="M0 0 C-0.99 0.33 -1.98 0.66 -3 1 C-3 1.66 -3 2.32 -3 3 C-8.52660506 6.22385295 -14.66491954 7.31675402 -21 7 C-17.45941714 4.63961143 -13.90193747 3.30223114 -9.9375 1.8125 C-9.20466797 1.52697266 -8.47183594 1.24144531 -7.71679688 0.94726562 C-2.2396978 -1.1198489 -2.2396978 -1.1198489 0 0 Z " fill="#74C5F3" transform="translate(298,314)"/>
<path d="M0 0 C-2.55769112 1.70512741 -4.53999311 2.68063145 -7.37890625 3.7265625 C-8.21744141 4.0359375 -9.05597656 4.3453125 -9.91992188 4.6640625 C-10.79197266 4.98117187 -11.66402344 5.29828125 -12.5625 5.625 C-13.43841797 5.94984375 -14.31433594 6.2746875 -15.21679688 6.609375 C-21.74079241 9 -21.74079241 9 -24 9 C-24 8.34 -24 7.68 -24 7 C-5.65018558 -0.54679215 -5.65018558 -0.54679215 0 0 Z " fill="#7EC7F1" transform="translate(453,274)"/>
<path d="M0 0 C0.66 0.33 1.32 0.66 2 1 C2 6.61 2 12.22 2 18 C1.34 18 0.68 18 0 18 C0 13.05 0 8.1 0 3 C-1.98 3 -3.96 3 -6 3 C-3 1 -3 1 0 0 Z " fill="#95D3ED" transform="translate(486,275)"/>
<path d="M0 0 C7.21930632 1.44386126 14.05110733 3.57788174 21 6 C21 6.33 21 6.66 21 7 C19.35369672 6.85957123 17.70795821 6.71250671 16.0625 6.5625 C14.68771484 6.44068359 14.68771484 6.44068359 13.28515625 6.31640625 C11 6 11 6 10 5 C8.65252916 4.76924918 7.29622435 4.58846937 5.9375 4.4375 C4.638125 4.293125 3.33875 4.14875 2 4 C2 3.34 2 2.68 2 2 C1.34 2 0.68 2 0 2 C0 1.34 0 0.68 0 0 Z " fill="#77C5F0" transform="translate(422,175)"/>
<path d="M0 0 C-3.21963674 2.14642449 -6.44429859 3.35881354 -10.0625 4.625 C-10.69994141 4.85445313 -11.33738281 5.08390625 -11.99414062 5.3203125 C-16.738258 7 -16.738258 7 -19 7 C-19 6.01 -19 5.02 -19 4 C-17.88625 3.814375 -17.88625 3.814375 -16.75 3.625 C-14.18058185 3.04104133 -12.29101065 2.26400588 -10 1 C-6.78548731 -0.60725635 -3.56387464 -0.05748185 0 0 Z " fill="#6CC2F2" transform="translate(331,287)"/>
<path d="M0 0 C0 0.99 0 1.98 0 3 C-0.99 3.33 -1.98 3.66 -3 4 C-2.34 4.66 -1.68 5.32 -1 6 C-4.42232972 7.14077657 -7.08673217 7.09815117 -10.6875 7.0625 C-12.45673828 7.04896484 -12.45673828 7.04896484 -14.26171875 7.03515625 C-15.16535156 7.02355469 -16.06898438 7.01195313 -17 7 C-13.74551903 4.83034602 -10.4746415 3.63856738 -6.8125 2.375 C-6.15830078 2.14554687 -5.50410156 1.91609375 -4.83007812 1.6796875 C-3.22135865 1.11604856 -1.61085023 0.55752016 0 0 Z " fill="#76C8F4" transform="translate(249,119)"/>
<path d="M0 0 C-7.30541775 4.74942792 -12.17834168 7.29903927 -21 7 C-17.45941714 4.63961143 -13.90193747 3.30223114 -9.9375 1.8125 C-9.20466797 1.52697266 -8.47183594 1.24144531 -7.71679688 0.94726562 C-2.2396978 -1.1198489 -2.2396978 -1.1198489 0 0 Z " fill="#7FC9F1" transform="translate(142,160)"/>
<path d="M0 0 C-0.99 1.485 -0.99 1.485 -2 3 C-4.625 3.1875 -4.625 3.1875 -7 3 C-7 3.66 -7 4.32 -7 5 C-8.65 5.33 -10.3 5.66 -12 6 C-12 6.66 -12 7.32 -12 8 C-12.66 8 -13.32 8 -14 8 C-14 7.01 -14 6.02 -14 5 C-14.66 4.67 -15.32 4.34 -16 4 C-13.71144298 3.13656269 -11.4198072 2.2840189 -9.125 1.4375 C-8.47402344 1.19064453 -7.82304687 0.94378906 -7.15234375 0.68945312 C-2.2265625 -1.11328125 -2.2265625 -1.11328125 0 0 Z " fill="#68C3F2" transform="translate(423,300)"/>
<path d="M0 0 C12.66970387 3.07517084 12.66970387 3.07517084 18 5 C18 5.33 18 5.66 18 6 C15.93673023 5.91239411 13.8743284 5.80420727 11.8125 5.6875 C10.66394531 5.62949219 9.51539063 5.57148438 8.33203125 5.51171875 C4.82964659 4.97383787 2.80423449 4.13882292 0 2 C0 1.34 0 0.68 0 0 Z " fill="#71C5F2" transform="translate(444,182)"/>
<path d="M0 0 C-3.09664001 4.64496002 -7.71249104 4.92911211 -13 6 C-16.6875 6.1875 -16.6875 6.1875 -19 6 C-15.78117751 3.85411834 -12.54876914 2.60197657 -8.9375 1.3125 C-8.30005859 1.07466797 -7.66261719 0.83683594 -7.00585938 0.59179688 C-2.24081277 -1.12040638 -2.24081277 -1.12040638 0 0 Z " fill="#7AC7F3" transform="translate(347,296)"/>
<path d="M0 0 C-1.65626388 3.31252776 -4.945718 3.88538685 -8.27734375 5.1796875 C-12.04088054 6.3136082 -15.09736385 6.28908416 -19 6 C-15.78117751 3.85411834 -12.54876914 2.60197657 -8.9375 1.3125 C-8.30005859 1.07466797 -7.66261719 0.83683594 -7.00585938 0.59179688 C-2.24081277 -1.12040638 -2.24081277 -1.12040638 0 0 Z " fill="#76C6F3" transform="translate(437,263)"/>
<path d="M0 0 C6.75052102 1.77910928 13.40620337 3.70438191 20 6 C20 6.33 20 6.66 20 7 C15.545 7.495 15.545 7.495 11 8 C11.33 7.34 11.66 6.68 12 6 C11.30132812 5.81824219 10.60265625 5.63648438 9.8828125 5.44921875 C8.97273438 5.19785156 8.06265625 4.94648438 7.125 4.6875 C6.22007812 4.44386719 5.31515625 4.20023438 4.3828125 3.94921875 C2 3 2 3 0 0 Z " fill="#71C5F0" transform="translate(373,159)"/>
<path d="M0 0 C1.4540625 0.0309375 1.4540625 0.0309375 2.9375 0.0625 C-2.26894753 3.53346502 -8.85881927 6.76660265 -15.25 5.8125 C-16.178125 5.565 -17.10625 5.3175 -18.0625 5.0625 C-18.0625 4.7325 -18.0625 4.4025 -18.0625 4.0625 C-15.7525 4.0625 -13.4425 4.0625 -11.0625 4.0625 C-11.0625 3.4025 -11.0625 2.7425 -11.0625 2.0625 C-9.3609375 1.8459375 -9.3609375 1.8459375 -7.625 1.625 C-3.97252634 1.04829363 -3.54680005 0.07238367 0 0 Z " fill="#82CBF4" transform="translate(263.0625,374.9375)"/>
<path d="M0 0 C-1.65365406 1.02137457 -3.32376502 2.01612294 -5 3 C-5.928125 3.556875 -6.85625 4.11375 -7.8125 4.6875 C-11.85093604 6.35038543 -14.66373686 6.22428947 -19 6 C-15.78117751 3.85411834 -12.54876914 2.60197657 -8.9375 1.3125 C-8.30005859 1.07466797 -7.66261719 0.83683594 -7.00585938 0.59179688 C-2.24081277 -1.12040638 -2.24081277 -1.12040638 0 0 Z " fill="#77C6F1" transform="translate(307,279)"/>
<path d="M0 0 C-1.32 0.33 -2.64 0.66 -4 1 C-4 1.66 -4 2.32 -4 3 C-4.99 3 -5.98 3 -7 3 C-7 3.66 -7 4.32 -7 5 C-9.75078884 5.91692961 -11.35948913 6.10886083 -14.1875 6.0625 C-16.0746875 6.0315625 -16.0746875 6.0315625 -18 6 C-14.87754953 3.91836635 -11.92965119 2.67424387 -8.4375 1.3125 C-7.28121094 0.85488281 -6.12492187 0.39726562 -4.93359375 -0.07421875 C-2 -1 -2 -1 0 0 Z " fill="#74C7F4" transform="translate(350,263)"/>
<path d="M0 0 C-1.32 0.33 -2.64 0.66 -4 1 C-4 1.66 -4 2.32 -4 3 C-4.99 3 -5.98 3 -7 3 C-7 3.66 -7 4.32 -7 5 C-12.94 5.495 -12.94 5.495 -19 6 C-15.78117751 3.85411834 -12.54876914 2.60197657 -8.9375 1.3125 C-8.30005859 1.07466797 -7.66261719 0.83683594 -7.00585938 0.59179688 C-2.24081277 -1.12040638 -2.24081277 -1.12040638 0 0 Z " fill="#79C8F2" transform="translate(298,346)"/>
<path d="M0 0 C1.58409994 0.11487748 3.16728963 0.24234508 4.75 0.375 C6.07257812 0.47941406 6.07257812 0.47941406 7.421875 0.5859375 C9.99066382 0.99850055 11.75841015 1.71160957 14 3 C14 3.66 14 4.32 14 5 C15.65 5 17.3 5 19 5 C18.67 5.66 18.34 6.32 18 7 C11.76559832 5.41039668 5.83712355 3.72399099 0 1 C0 0.67 0 0.34 0 0 Z " fill="#76C8F2" transform="translate(14,294)"/>
<path d="M0 0 C-2.61943903 2.61943903 -5.57473973 3.44197838 -9 4.625 C-9.64195312 4.85445312 -10.28390625 5.08390625 -10.9453125 5.3203125 C-15.72442336 7 -15.72442336 7 -18 7 C-18 6.34 -18 5.68 -18 5 C-11.8711184 1.73024927 -7.05458636 -0.20155961 0 0 Z " fill="#76C4F1" transform="translate(447,244)"/>
<path d="M0 0 C6.17222879 1.24028238 12.06682122 2.89603589 18 5 C18 5.33 18 5.66 18 6 C13.71 5.67 9.42 5.34 5 5 C5 4.34 5 3.68 5 3 C3.35 2.67 1.7 2.34 0 2 C0 1.34 0 0.68 0 0 Z " fill="#80C7ED" transform="translate(307,138)"/>
<path d="M0 0 C-1.32 0.33 -2.64 0.66 -4 1 C-4 1.66 -4 2.32 -4 3 C-9.10334017 4.905247 -13.46342706 6.42589023 -19 6 C-15.78117751 3.85411834 -12.54876914 2.60197657 -8.9375 1.3125 C-8.30005859 1.07466797 -7.66261719 0.83683594 -7.00585938 0.59179688 C-2.24081277 -1.12040638 -2.24081277 -1.12040638 0 0 Z " fill="#7AC7F1" transform="translate(456,256)"/>
<path d="M0 0 C-4.05261662 4.05261662 -10.41823303 5.31101624 -16 6 C-17.34051768 5.69684785 -18.67562474 5.3673133 -20 5 C-17.2328864 3.96794141 -14.46208746 2.94909171 -11.6875 1.9375 C-10.90181641 1.64294922 -10.11613281 1.34839844 -9.30664062 1.04492188 C-8.54931641 0.77099609 -7.79199219 0.49707031 -7.01171875 0.21484375 C-6.31522217 -0.04176025 -5.61872559 -0.29836426 -4.90112305 -0.56274414 C-3 -1 -3 -1 0 0 Z " fill="#78C8F2" transform="translate(422,237)"/>
<path d="M0 0 C3.625 -0.1875 3.625 -0.1875 7 0 C6.67 0.66 6.34 1.32 6 2 C4.02 2.66 2.04 3.32 0 4 C0 8.62 0 13.24 0 18 C-0.66 18 -1.32 18 -2 18 C-2.05397335 15.5622037 -2.09365616 13.12560315 -2.125 10.6875 C-2.14175781 9.99720703 -2.15851563 9.30691406 -2.17578125 8.59570312 C-2.21217794 4.82864604 -2.14378864 3.21568296 0 0 Z " fill="#8FD4F7" transform="translate(268,339)"/>
<path d="M0 0 C0.99 0.495 0.99 0.495 2 1 C1.67 5.29 1.34 9.58 1 14 C3.97 13.01 6.94 12.02 10 11 C9.34 12.32 8.68 13.64 8 15 C5.36 15 2.72 15 0 15 C0 10.05 0 5.1 0 0 Z " fill="#94D7F9" transform="translate(266,310)"/>
<path d="M0 0 C-2.47937284 3.71905926 -3.71739996 3.96900369 -8 5 C-10.69303025 5.15015097 -13.29865447 5.09314985 -16 5 C-13.13879225 3.09252817 -10.64745007 1.99646294 -7.4375 0.8125 C-6.46683594 0.44769531 -5.49617188 0.08289063 -4.49609375 -0.29296875 C-2 -1 -2 -1 0 0 Z " fill="#79C8F3" transform="translate(88,180)"/>
<path d="M0 0 C0 0.66 0 1.32 0 2 C-6.03076923 6.06153846 -6.03076923 6.06153846 -10.9375 5.75 C-11.948125 5.5025 -12.95875 5.255 -14 5 C-11.56585763 3.37723842 -9.68680554 2.38255208 -7 1.375 C-6.319375 1.11460937 -5.63875 0.85421875 -4.9375 0.5859375 C-3 0 -3 0 0 0 Z " fill="#6EC4F3" transform="translate(407,305)"/>
<path d="M0 0 C-2.46687301 3.70030952 -3.75199978 3.95803768 -8 5 C-10.33212027 5.07522969 -12.6685311 5.09325876 -15 5 C-12.62383533 2.62383533 -10.64650479 1.95931819 -7.5 0.8125 C-6.5203125 0.44769531 -5.540625 0.08289063 -4.53125 -0.29296875 C-2 -1 -2 -1 0 0 Z " fill="#79C9F4" transform="translate(28,202)"/>
<path d="M0 0 C2.97 0.33 5.94 0.66 9 1 C9 1.66 9 2.32 9 3 C10.65 3 12.3 3 14 3 C14 3.66 14 4.32 14 5 C15.32 5.33 16.64 5.66 18 6 C16 7 16 7 12.3046875 5.78515625 C10.82514342 5.21866415 9.34867819 4.64408111 7.875 4.0625 C7.12089844 3.77181641 6.36679688 3.48113281 5.58984375 3.18164062 C3.72391398 2.46125002 1.8616042 1.73149596 0 1 C0 0.67 0 0.34 0 0 Z " fill="#80CAF3" transform="translate(226,372)"/>
<path d="M0 0 C5.11365014 1.0681847 10.07227969 2.23107476 15 4 C12 6 12 6 8.8125 5.625 C7.884375 5.41875 6.95625 5.2125 6 5 C6 4.34 6 3.68 6 3 C4.35 3 2.7 3 1 3 C0.67 2.01 0.34 1.02 0 0 Z " fill="#72C8F3" transform="translate(357,154)"/>
<path d="M0 0 C6.45054982 1.35253464 12.71105679 3.03060233 19 5 C19 5.33 19 5.66 19 6 C12.31006781 5.46048934 6.36539272 4.11293829 0 2 C0 1.34 0 0.68 0 0 Z " fill="#76C6F0" transform="translate(288,132)"/>
<path d="M0 0 C-2.86120775 1.90747183 -5.35254993 3.00353706 -8.5625 4.1875 C-9.53316406 4.55230469 -10.50382812 4.91710937 -11.50390625 5.29296875 C-14 6 -14 6 -16 5 C-15.67 4.34 -15.34 3.68 -15 3 C-13.68 3 -12.36 3 -11 3 C-11 2.34 -11 1.68 -11 1 C-7.27569643 0.30710631 -3.78916254 -0.11144596 0 0 Z " fill="#78C8EF" transform="translate(350,344)"/>
<path d="M0 0 C-2.87078299 1.91385532 -5.33411656 2.96432952 -8.5625 4.125 C-9.53316406 4.47820312 -10.50382812 4.83140625 -11.50390625 5.1953125 C-14 6 -14 6 -16 6 C-16 5.34 -16 4.68 -16 4 C-14.35 3.67 -12.7 3.34 -11 3 C-11 2.34 -11 1.68 -11 1 C-7.27569643 0.30710631 -3.78916254 -0.11144596 0 0 Z " fill="#7DC7F1" transform="translate(377,334)"/>
<path d="M0 0 C2.64 0 5.28 0 8 0 C5.31998165 1.7866789 2.96871256 2.9322137 0 4.125 C-0.86625 4.47820312 -1.7325 4.83140625 -2.625 5.1953125 C-5 6 -5 6 -8 6 C-8 5.34 -8 4.68 -8 4 C-5.09399739 2.74335022 -3.20395416 2 0 2 C0 1.34 0 0.68 0 0 Z " fill="#74C6F2" transform="translate(404,321)"/>
<path d="M0 0 C-2.87078299 1.91385532 -5.33411656 2.96432952 -8.5625 4.125 C-9.53316406 4.47820312 -10.50382812 4.83140625 -11.50390625 5.1953125 C-14 6 -14 6 -16 6 C-16 5.34 -16 4.68 -16 4 C-14.02 3.67 -12.04 3.34 -10 3 C-10 2.34 -10 1.68 -10 1 C-6.59437148 0.22157062 -3.49234244 -0.09978121 0 0 Z " fill="#7CC7F1" transform="translate(377,270)"/>
<path d="M0 0 C-2.38125464 2.38125464 -4.33857567 3.00186241 -7.5 4.125 C-8.4796875 4.47820312 -9.459375 4.83140625 -10.46875 5.1953125 C-13 6 -13 6 -15 6 C-15 5.34 -15 4.68 -15 4 C-13.35 3.67 -11.7 3.34 -10 3 C-10 2.34 -10 1.68 -10 1 C-6.59437148 0.22157062 -3.49234244 -0.09978121 0 0 Z " fill="#7FC7F2" transform="translate(401,228)"/>
<path d="M0 0 C-1.32 0.33 -2.64 0.66 -4 1 C-4 1.66 -4 2.32 -4 3 C-7.90028225 5.60018816 -11.47434569 5.15085514 -16 5 C-13.13879225 3.09252817 -10.64745007 1.99646294 -7.4375 0.8125 C-6.46683594 0.44769531 -5.49617188 0.08289063 -4.49609375 -0.29296875 C-2 -1 -2 -1 0 0 Z " fill="#7CC9F1" transform="translate(61,190)"/>
<path d="M0 0 C-4.38423952 3.44475962 -7.30835767 5.31620235 -13 5 C-12.67 4.01 -12.34 3.02 -12 2 C-7.9083139 0.19204568 -4.44280672 -0.21156222 0 0 Z " fill="#64BEF1" transform="translate(236,126)"/>
<path d="M0 0 C-2.87078299 1.91385532 -5.33411656 2.96432952 -8.5625 4.125 C-9.53316406 4.47820312 -10.50382812 4.83140625 -11.50390625 5.1953125 C-14 6 -14 6 -16 6 C-16 5.34 -16 4.68 -16 4 C-14.274773 3.32320342 -12.54461061 2.65898 -10.8125 2 C-9.84957031 1.62875 -8.88664062 1.2575 -7.89453125 0.875 C-5.07817642 0.02363228 -2.91835561 -0.17072647 0 0 Z " fill="#7BC7EF" transform="translate(293,268)"/>
<path d="M0 0 C-1.78174788 2.30142435 -3.16304165 3.80034391 -6.046875 4.48828125 C-8.0246611 4.72323102 -10.01271872 4.86751458 -12 5 C-8.98541648 1.5216344 -4.71726343 -2.35863172 0 0 Z " fill="#64BDF2" transform="translate(478,216)"/>
<path d="M0 0 C-2.67024533 1.78016355 -5.05030861 2.97163019 -8 4.1875 C-8.86625 4.55230469 -9.7325 4.91710937 -10.625 5.29296875 C-13 6 -13 6 -16 5 C-15.34 5 -14.68 5 -14 5 C-14 4.34 -14 3.68 -14 3 C-4.58997722 -0.44419134 -4.58997722 -0.44419134 0 0 Z " fill="#83C9F1" transform="translate(366,306)"/>
<path d="M0 0 C5.11365014 1.0681847 10.07227969 2.23107476 15 4 C15 4.33 15 4.66 15 5 C9.72684667 4.5547115 4.98229776 3.91626837 0 2 C0 1.34 0 0.68 0 0 Z " fill="#74C7F3" transform="translate(251,120)"/>
<path d="M0 0 C1.98 0 3.96 0 6 0 C3.94876752 2.05123248 2.72994937 2.64147118 0.0625 3.625 C-0.97197266 4.01558594 -0.97197266 4.01558594 -2.02734375 4.4140625 C-4 5 -4 5 -7 5 C-7 4.01 -7 3.02 -7 2 C-4.69 2 -2.38 2 0 2 C0 1.34 0 0.68 0 0 Z " fill="#78C6F1" transform="translate(384,329)"/>
<path d="M0 0 C-2.85584773 1.90389849 -4.9311762 2.69462177 -8.1875 3.625 C-9.08855469 3.88539063 -9.98960937 4.14578125 -10.91796875 4.4140625 C-11.94857422 4.70410156 -11.94857422 4.70410156 -13 5 C-13.33 4.34 -13.66 3.68 -14 3 C-4.58997722 -0.44419134 -4.58997722 -0.44419134 0 0 Z " fill="#7DC8F0" transform="translate(312,294)"/>
<path d="M0 0 C-2.43044383 3.64566574 -3.82388959 3.9977335 -8 5 C-10.375 4.625 -10.375 4.625 -12 4 C-11.01 3.67 -10.02 3.34 -9 3 C-8.67 2.34 -8.34 1.68 -8 1 C-2.47058824 -1.23529412 -2.47058824 -1.23529412 0 0 Z " fill="#66C0F1" transform="translate(407,274)"/>
<path d="M0 0 C-0.99 1.32 -1.98 2.64 -3 4 C-5.64 3.67 -8.28 3.34 -11 3 C-3.71428571 -1.85714286 -3.71428571 -1.85714286 0 0 Z " fill="#73C7F4" transform="translate(391,248)"/>
<path d="M0 0 C-5.36439644 2.68219822 -9.01006953 3.3152595 -15 3 C-12.22199328 1.14799552 -10.66558555 0.5142048 -7.5 -0.1875 C-6.7265625 -0.36667969 -5.953125 -0.54585937 -5.15625 -0.73046875 C-3 -1 -3 -1 0 0 Z " fill="#67C0F1" transform="translate(212,136)"/>
<path d="M0 0 C1.4391134 0.28359887 2.87625518 0.57721399 4.3125 0.875 C5.11300781 1.03742188 5.91351563 1.19984375 6.73828125 1.3671875 C9 2 9 2 12 4 C8.37 3.67 4.74 3.34 1 3 C0.67 2.01 0.34 1.02 0 0 Z " fill="#7AC9F2" transform="translate(276,128)"/>
<path d="M0 0 C1.41782145 0.06059066 2.83444466 0.14954123 4.25 0.25 C5.03890625 0.29640625 5.8278125 0.3428125 6.640625 0.390625 C9.67898672 1.17536743 10.96841312 2.67019853 13 5 C11.20620902 4.55005243 9.41501072 4.08975857 7.625 3.625 C6.62726563 3.36976563 5.62953125 3.11453125 4.6015625 2.8515625 C2 2 2 2 0 0 Z " fill="#84CEF0" transform="translate(166,350)"/>
<path d="M0 0 C6.625 -0.125 6.625 -0.125 10 1 C10 1.99 10 2.98 10 4 C6.7 3.01 3.4 2.02 0 1 C0 0.67 0 0.34 0 0 Z " fill="#7CC9F3" transform="translate(155,346)"/>
<path d="M0 0 C-0.33 0.66 -0.66 1.32 -1 2 C-1.99 2 -2.98 2 -4 2 C-4 2.66 -4 3.32 -4 4 C-5.65 4 -7.3 4 -9 4 C-8.67 3.01 -8.34 2.02 -8 1 C-2.59770115 -1.29885057 -2.59770115 -1.29885057 0 0 Z " fill="#67C0F3" transform="translate(328,335)"/>
<path d="M0 0 C2.97 0.33 5.94 0.66 9 1 C9 2.32 9 3.64 9 5 C2.25 3.375 2.25 3.375 0 0 Z " fill="#74C4F5" transform="translate(55,308)"/>
<path d="M0 0 C-0.33 0.99 -0.66 1.98 -1 3 C-4.3 3 -7.6 3 -11 3 C-3.71428571 -1.85714286 -3.71428571 -1.85714286 0 0 Z " fill="#78C8F3" transform="translate(369,288)"/>
<path d="M0 0 C-1.6232687 0.6708712 -3.24867578 1.33657029 -4.875 2 C-6.23238281 2.556875 -6.23238281 2.556875 -7.6171875 3.125 C-10 4 -10 4 -12 4 C-11.67 3.01 -11.34 2.02 -11 1 C-9.2578125 0.234375 -9.2578125 0.234375 -7.125 -0.25 C-6.07699219 -0.50523437 -6.07699219 -0.50523437 -5.0078125 -0.765625 C-3 -1 -3 -1 0 0 Z " fill="#77C4EF" transform="translate(487,230)"/>
<path d="M0 0 C-3.68734758 2.45823172 -6.69699971 3.01242616 -11 4 C-11 3.01 -11 2.02 -11 1 C-7.26562152 0.12132271 -3.83225427 -0.08912219 0 0 Z " fill="#78C6F2" transform="translate(475,266)"/>
<path d="M0 0 C-3.68734758 2.45823172 -6.69699971 3.01242616 -11 4 C-11 3.01 -11 2.02 -11 1 C-7.26562152 0.12132271 -3.83225427 -0.08912219 0 0 Z " fill="#78C6F2" transform="translate(475,234)"/>
<path d="M0 0 C-3.67259383 2.44839588 -6.54648201 4 -11 4 C-11 3.34 -11 2.68 -11 2 C-7.17010894 0.19769832 -4.21878192 -0.19622241 0 0 Z " fill="#7BC8F1" transform="translate(290,366)"/>
<path d="M0 0 C5.95703125 -0.390625 5.95703125 -0.390625 8 0 C8.99 1.32 9.98 2.64 11 4 C7.37 3.01 3.74 2.02 0 1 C0 0.67 0 0.34 0 0 Z " fill="#7AC8F3" transform="translate(179,355)"/>
<path d="M0 0 C0.33 0.99 0.66 1.98 1 3 C1.99 3.33 2.98 3.66 4 4 C2 5 2 5 -0.1640625 4.44140625 C-0.97617188 4.15136719 -1.78828125 3.86132812 -2.625 3.5625 C-3.44226563 3.27503906 -4.25953125 2.98757813 -5.1015625 2.69140625 C-5.72804688 2.46324219 -6.35453125 2.23507812 -7 2 C-7 1.67 -7 1.34 -7 1 C-3.535 0.505 -3.535 0.505 0 0 Z " fill="#7CCBF5" transform="translate(77,314)"/>
<path d="M0 0 C5.95703125 -0.390625 5.95703125 -0.390625 8 0 C8.99 1.32 9.98 2.64 11 4 C7.37 3.01 3.74 2.02 0 1 C0 0.67 0 0.34 0 0 Z " fill="#7AC9F1" transform="translate(32,301)"/>
<path d="M0 0 C-1 1.5 -1 1.5 -3 3 C-5.71846235 3.27345479 -8.25677199 3.13491285 -11 3 C-3.71428571 -1.85714286 -3.71428571 -1.85714286 0 0 Z " fill="#7CCAF3" transform="translate(418,270)"/>
<path d="M0 0 C-1 1.5 -1 1.5 -3 3 C-5.71846235 3.27345479 -8.25677199 3.13491285 -11 3 C-3.71428571 -1.85714286 -3.71428571 -1.85714286 0 0 Z " fill="#7BC8F3" transform="translate(402,244)"/>
<path d="M0 0 C-3.67259383 2.44839588 -6.54648201 4 -11 4 C-11 3.34 -11 2.68 -11 2 C-7.17010894 0.19769832 -4.21878192 -0.19622241 0 0 Z " fill="#84CAF1" transform="translate(456,208)"/>
<path d="M0 0 C-1 1.5 -1 1.5 -3 3 C-5.71846235 3.27345479 -8.25677199 3.13491285 -11 3 C-3.71428571 -1.85714286 -3.71428571 -1.85714286 0 0 Z " fill="#7ECBF2" transform="translate(72,186)"/>
<path d="M0 0 C-1 1.5 -1 1.5 -3 3 C-5.71846235 3.27345479 -8.25677199 3.13491285 -11 3 C-3.71428571 -1.85714286 -3.71428571 -1.85714286 0 0 Z " fill="#7ACCF4" transform="translate(110,172)"/>
<path d="M0 0 C-1 1.5 -1 1.5 -3 3 C-5.71846235 3.27345479 -8.25677199 3.13491285 -11 3 C-3.71428571 -1.85714286 -3.71428571 -1.85714286 0 0 Z " fill="#7ECAF5" transform="translate(224,130)"/>
<path d="M0 0 C2.64 0 5.28 0 8 0 C8 0.66 8 1.32 8 2 C8.66 2 9.32 2 10 2 C10 2.66 10 3.32 10 4 C6.7 3.01 3.4 2.02 0 1 C0 0.67 0 0.34 0 0 Z " fill="#7DCCF6" transform="translate(190,359)"/>
<path d="M0 0 C-2.70188004 1.80125336 -4.93057703 3.00243753 -8 4 C-8.99 3.67 -9.98 3.34 -11 3 C-10.67 2.34 -10.34 1.68 -10 1 C-6.6322481 0.06451336 -3.4815554 -0.09947301 0 0 Z " fill="#85CBF2" transform="translate(361,276)"/>
<path d="M0 0 C-3.67259383 2.44839588 -6.54648201 4 -11 4 C-11 3.34 -11 2.68 -11 2 C-7.17679443 0.57741188 -4.08718695 -0.24042276 0 0 Z " fill="#81CBF0" transform="translate(304,264)"/>
<path d="M0 0 C-0.99 0.33 -1.98 0.66 -3 1 C-3 1.66 -3 2.32 -3 3 C-5.64 3 -8.28 3 -11 3 C-3.71428571 -1.85714286 -3.71428571 -1.85714286 0 0 Z " fill="#86CEF3" transform="translate(99,176)"/>
<path d="M0 0 C-2.71182212 2.60334924 -3.89133813 2.99456691 -7.75 3.1875 C-8.8225 3.125625 -9.895 3.06375 -11 3 C-3.71428571 -1.85714286 -3.71428571 -1.85714286 0 0 Z " fill="#7ECBF0" transform="translate(121,168)"/>
<path d="M0 0 C2.97 0.33 5.94 0.66 9 1 C9.33 1.99 9.66 2.98 10 4 C6.7 3.01 3.4 2.02 0 1 C0 0.67 0 0.34 0 0 Z " fill="#87CDEF" transform="translate(95,324)"/>
<path d="M0 0 C2.31 0 4.62 0 7 0 C6.67 0.66 6.34 1.32 6 2 C3.67843403 2.40729228 1.3431213 2.74438677 -1 3 C-0.67 2.01 -0.34 1.02 0 0 Z " fill="#68BDF0" transform="translate(268,307)"/>
<path d="M0 0 C0.66 0.33 1.32 0.66 2 1 C-1.75 4 -1.75 4 -4 4 C-4 4.66 -4 5.32 -4 6 C-4.66 6 -5.32 6 -6 6 C-6 5.01 -6 4.02 -6 3 C-4.03533587 1.93224776 -2.03144641 0.93446535 0 0 Z " fill="#68C2F1" transform="translate(272,290)"/>
<path d="M0 0 C-2.95183101 2.95183101 -5.95511947 3.08663988 -10 4 C-10 3.34 -10 2.68 -10 2 C-6.5980513 -0.09350689 -3.94727588 -0.17942163 0 0 Z " fill="#7BC9F4" transform="translate(382,235)"/>
<path d="M0 0 C2.875 0.25 2.875 0.25 6 1 C7.375 3.0625 7.375 3.0625 8 5 C7.01 5 6.02 5 5 5 C5 4.34 5 3.68 5 3 C3.35 2.67 1.7 2.34 0 2 C0 1.34 0 0.68 0 0 Z " fill="#6EC1F1" transform="translate(307,138)"/>
<path d="M0 0 C1.67542976 0.28604898 3.34385343 0.61781233 5 1 C4.67 2.32 4.34 3.64 4 5 C3.34 4.67 2.68 4.34 2 4 C2 3.34 2 2.68 2 2 C1.01 1.67 0.02 1.34 -1 1 C-0.67 0.67 -0.34 0.34 0 0 Z " fill="#43B2F6" transform="translate(402,243)"/>
</svg>
